<svg xmlns="http://www.w3.org/2000/svg" viewBox="0 135 1080 1080"><defs><style>.cls-1{fill:#c4a584;}.cls-2{fill:#8b9a7a;}</style></defs><title>MakeUGC Favicon</title><g id="Layer_12" data-name="Layer 12"><g id="Layer_2" data-name="Layer 2"><path class="cls-1" d="M153.81,728.28V565.66h78.33V703c0,38.17,16.36,50.07,38.18,50.07,3.47,0,42.64,1.49,42.64-50.07V565.66H391.3V808.6H313V772.41h-.5c-16.36,30.74-46.11,45.12-72.88,45.12C179.59,817.53,153.81,778.36,153.81,728.28Z"/><path class="cls-1" d="M658,686.64c0-88.26,60.48-129.9,133.86-129.9,59.5,0,106.6,30.24,125,80.32L834,642c-6.45-16.36-20.33-24.29-42.15-24.29-33.71,0-54.53,21.32-54.53,68.92,0,49.58,21.31,70.4,54.53,70.4,23.8,0,41.16-10.91,48.59-36.19l79.33,6.44c-11.9,45.62-55,90.24-125.44,90.24C718,817.53,658,773.9,658,686.64Z"/><path class="cls-2" d="M890.07,800.64a9.48,9.48,0,0,1,2.86-6.89,9.37,9.37,0,0,1,6.91-2.88,9.63,9.63,0,0,1,7,2.85,9.21,9.21,0,0,1,2.91,6.8,10.15,10.15,0,0,1-9.89,9.89,9.76,9.76,0,0,1-9.77-9.77Z"/><path class="cls-2" d="M922.27,738.2a9,9,0,1,1,9,9.06,9.14,9.14,0,0,1-9-9.06Zm.47,16.24h17.12v54.14H922.74Z"/><path class="cls-2" d="M970.41,754.44v7.36h.29q6-9.12,14.65-9.12a11.38,11.38,0,0,1,9,3.76q3.33,3.76,3.32,10.18v42H980.53V775.22a7.45,7.45,0,0,0-1.3-4.54,4,4,0,0,0-3.35-1.76q-5.48,0-5.47,6.88v32.78H953.34V754.44Z"/><path class="cls-1" d="M626.76,654.3a103.22,103.22,0,0,1-27.56,70.36l-47.83-9.16,72-87.51A103.23,103.23,0,0,1,626.76,654.3Z"/><path class="cls-1" d="M495.47,605.88,425.6,689.63a103.92,103.92,0,0,1,12.92-95.3Z"/><path class="cls-1" d="M555.7,612.38l-110.9-26a103.62,103.62,0,0,1,92.57-34.74Z"/><path class="cls-1" d="M620,617.54l-37.47,48.13L547.72,553.58A103.8,103.8,0,0,1,620,617.54Z"/><path class="cls-1" d="M589.23,734.12a103.82,103.82,0,0,1-84.85,22.15l-14.76-45.1Z"/><path class="cls-1" d="M492.81,753.45a103.82,103.82,0,0,1-63.07-54.06L463.2,658.3Z"/><path class="cls-1" d="M629.7,785.24a57.49,57.49,0,0,0-30.51-19.81q-18.27-4.83-55.06-6.91-39.94-2.07-48.91-4.84t-9-11.52a14.25,14.25,0,0,1,.8-4.71l-27-18.2q-29.71,19-29.71,44.11,0,26,31.94,40.29l37.78,6.49v0q15,1.85,30.26,2.77,25.9,1.15,34,2.66a23.23,23.23,0,0,1,13.31,7.13c3.48,3.76,5.2,8.64,5.2,14.63q0,24.41-48.17,24.42-47,0-54.66-16.47l-56.26,14.08q10.44,43.14,98.81,43.16,119.35,0,119.36-77.86Q641.93,800.22,629.7,785.24ZM649.42,552q-21.17-6.94-34.52.4t-24,31.27l17,25.16q11.21-19.4,31.4-12.76a61.55,61.55,0,0,1,13.43,6.44l13.87-42.33A67.34,67.34,0,0,0,649.42,552Z"/><line class="cls-1" x1="492.06" y1="737.45" x2="465.04" y2="719.25"/><path class="cls-2" d="M172.09,494.08v6.65q7.31-8.53,14.83-8.53,9.08,0,11.72,9.35a34.77,34.77,0,0,1,7.68-7.12,15.31,15.31,0,0,1,8.32-2.23q12,0,12,16.71v39.31H209.46v-32q0-7.83-5.06-7.83t-5.18,7.71v32.07H182.1V515.33a8.34,8.34,0,0,0-1.38-5,4.23,4.23,0,0,0-3.57-1.94,4.35,4.35,0,0,0-3.67,1.88,8.45,8.45,0,0,0-1.39,5.12v32.78H155V494.08Z"/><path class="cls-2" d="M266.14,548.22V541.1h-.24a28.21,28.21,0,0,1-6,6.77,11.15,11.15,0,0,1-6.86,2.18q-7.71,0-12.3-7.89t-4.59-21.42q0-13,4.65-20.72T253,492.31a11.51,11.51,0,0,1,6.89,2,26.39,26.39,0,0,1,5.89,6.51H266v-6.77h17.13v54.14Zm0-27.36q0-13.49-6.59-13.48t-6.65,13.48q0,14,6.88,14Q266.14,534.86,266.14,520.86Z"/><path class="cls-2" d="M296.21,465.3h17.07v48.08h.29l11.66-19.3h20.48l-17.37,24.25,17.72,29.89H326.34L313.57,521.8h-.29v26.42H296.21Z"/><path class="cls-2" d="M376.13,531.69h14.42q-4.12,18.24-20.6,18.24-10.29,0-16.3-7.83t-6-21.6q0-12.83,6-20.56a19.18,19.18,0,0,1,16-7.74,20.28,20.28,0,0,1,11.53,3.73,21.66,21.66,0,0,1,8.07,9.92q2.52,6.18,2.82,19.48H363.48q.34,12.06,6.71,12.07a5.54,5.54,0,0,0,3.88-1.59A6.68,6.68,0,0,0,376.13,531.69ZM363.71,516h12.42c-.12-3.8-.65-6.62-1.59-8.44a4.69,4.69,0,0,0-4.47-2.74,5.13,5.13,0,0,0-4.88,2.65C364.2,509.26,363.71,512.11,363.71,516Z"/><path id="_Path_" data-name="&lt;Path&gt;" class="cls-2" d="M509.83,620.45l50,28.89a10.69,10.69,0,0,1,0,18.52l-50,28.9a10.7,10.7,0,0,1-16-9.27V629.71A10.69,10.69,0,0,1,509.83,620.45Z"/></g></g></svg>
